# xmcd
#
# Track frame offsets:
#	182
#	10612
#	21130
#	34145
#	48167
#	60010
#	69842
#	81877
#	93017
#	104872
#	121372
#	136782
#	146657
#	160685
#
# Disc length: 2366 seconds
#
# Revision: 1
# Processed by: cddbd v1.5.1PL0 Copyright (c) Steve Scherf et al.
# Submitted via: dBpowerAMP V4.0
#
DISCID=a4093c0e
DTITLE=Buddy Guy - The Great
DYEAR=1995
DGENRE=Blues
TTITLE0=First Time I Met The Blues
TTITLE1=I Got My Eyes On You
TTITLE2=Let Me Love You Baby
TTITLE3=I Got A Strange Feeling
TTITLE4=Ten Years Ago
TTITLE5=Baby (Baby, Baby, Baby)
TTITLE6=That's It
TTITLE7=No Lie
TTITLE8=My Love Is Real
TTITLE9=Every Girl I See
TTITLE10=Leave My Girl Alone
TTITLE11=Got To Use Your Head
TTITLE12=Going To School
TTITLE13=Buddy's Groove
EXTD=
EXTT0=
EXTT1=
EXTT2=
EXTT3=
EXTT4=
EXTT5=
EXTT6=
EXTT7=
EXTT8=
EXTT9=
EXTT10=
EXTT11=
EXTT12=
EXTT13=
PLAYORDER=
